<?xml version="1.0" encoding="UTF-8" standalone="no"?>
<!DOCTYPE svg PUBLIC "-//W3C//DTD SVG 1.1//EN" "http://www.w3.org/Graphics/SVG/1.1/DTD/svg11.dtd">
<svg width="100%" height="100%" viewBox="0 0 478 127" version="1.1" xmlns="http://www.w3.org/2000/svg" xmlns:xlink="http://www.w3.org/1999/xlink" xml:space="preserve" xmlns:serif="http://www.serif.com/" style="fill-rule:evenodd;clip-rule:evenodd;stroke-linecap:round;stroke-linejoin:round;stroke-miterlimit:1.5;">
    <g id="Artboard1" transform="matrix(1,0,0,1.01931,0,0)">
        <rect x="0" y="0" width="477.499" height="124.383" style="fill:none;"/>
        <g>
            <g transform="matrix(1,0,0,0.981056,-1460.81,-1323.86)">
                <g>
                    <rect x="1699.56" y="1352.62" width="58.953" height="120" style="fill:rgb(13,202,242);fill-opacity:0.447059;"/>
                </g>
            </g>
            <g transform="matrix(1,0,0,0.981056,-1378.82,-1188.78)">
                <g transform="matrix(1.70506,0,0,0.799208,-1140.42,255.995)">
                    <path d="M1652.68,1350L1582.3,1350L1582.3,1199.85L1652.68,1199.85L1652.68,1350ZM1584.13,1203.76L1584.13,1346.09L1650.85,1346.09L1650.85,1203.76L1584.13,1203.76Z" style="fill:rgb(35,31,32);"/>
                </g>
                <g transform="matrix(1,0,0,0.966055,0,43.2389)">
                    <path d="M1617.49,1214.93L1617.49,1334.93" style="fill:none;stroke:rgb(35,31,32);stroke-width:2.12px;"/>
                </g>
                <g transform="matrix(0.707107,-0.707107,0.707107,0.707107,-472.424,1610.63)">
                    <g transform="matrix(1,-1.11022e-16,1.11022e-16,1,-15.068,-16.8047)">
                        <g transform="matrix(1,0,0,-1,1721.01,1344.9)">
                            <path d="M49.605,7.288L49.743,8.029C51.725,16.797 59.152,28.298 57.507,39.073C57.073,41.579 56.641,42.985 56.037,43.784C55.539,44.442 54.831,44.802 53.283,44.802C52.854,44.802 52.46,44.756 52.103,44.673L51.572,44.468L51.517,38.518C51.511,37.893 51,37.391 50.376,37.397C49.751,37.403 49.249,37.914 49.255,38.538L49.314,44.903C49.384,46.894 49.09,47.753 48.701,48.173C48.329,48.576 47.596,48.863 45.891,48.863C44.544,48.863 43.561,48.428 43.013,47.725L42.84,47.576L42.784,41.608C42.778,40.983 42.267,40.481 41.643,40.487C41.018,40.493 40.516,41.005 40.522,41.629L40.581,47.992C40.651,49.984 40.357,50.843 39.967,51.264C39.595,51.667 38.863,51.954 37.158,51.954C36.148,51.954 35.341,51.709 34.771,51.29L34.317,50.852L34.293,41.43C34.291,40.806 33.783,40.3 33.158,40.302C32.534,40.304 32.029,40.812 32.031,41.437L32.09,63.752C32.16,65.746 31.866,66.605 31.477,67.027C31.104,67.429 30.372,67.717 28.667,67.717C27.514,67.717 26.623,67.395 26.053,66.866C25.51,66.362 25.118,65.538 25.201,64.205L25.203,64.135L25.203,31.79C25.203,31.165 24.696,30.659 24.072,30.659C23.447,30.659 22.94,31.165 22.94,31.79L22.94,39.185L22.262,39.093C16.241,37.874 16.765,31.561 19.526,27.335C22.945,22.096 27.308,16.445 28.695,9.42L28.958,7.38L49.605,7.288Z" style="fill:white;"/>
                        </g>
                        <g transform="matrix(1,0,0,-1,1721.01,1344.9)">
                            <path d="M50.538,5.022L27.962,5.122C27.367,5.125 26.874,5.59 26.838,6.184C26.362,13.934 21.712,19.848 17.632,26.098C13.809,31.951 14.296,39.805 21.794,41.31L22.94,41.464L22.94,64.135L22.93,64.751C22.967,66.084 23.372,67.217 24.103,68.091C24.23,68.243 24.367,68.388 24.514,68.524C25.617,69.549 27.124,69.979 28.667,69.979C30.455,69.979 32.072,69.715 33.138,68.562C34.186,67.428 34.422,65.729 34.352,63.71L34.325,53.61L34.568,53.744C35.37,54.07 36.259,54.217 37.158,54.217C38.945,54.217 40.562,53.954 41.629,52.801C42.153,52.233 42.474,51.524 42.655,50.705L42.706,50.325L43.302,50.654C44.104,50.979 44.992,51.126 45.891,51.126C47.679,51.126 49.295,50.863 50.362,49.709C50.886,49.143 51.207,48.434 51.388,47.615L51.491,46.846L51.584,46.874C52.131,47.003 52.703,47.064 53.283,47.064C57.69,47.064 58.864,44.491 59.74,39.437C61.608,27.202 52.852,14.355 51.663,5.994C51.583,5.435 51.103,5.019 50.538,5.022ZM49.605,7.288L49.743,8.029C51.725,16.797 59.152,28.298 57.507,39.073C57.073,41.579 56.641,42.985 56.037,43.784C55.539,44.442 54.831,44.802 53.283,44.802C52.854,44.802 52.46,44.756 52.103,44.673L51.572,44.468L51.517,38.518C51.511,37.893 51,37.391 50.376,37.397C49.751,37.403 49.249,37.914 49.255,38.538L49.314,44.903C49.384,46.894 49.09,47.753 48.701,48.173C48.329,48.576 47.596,48.863 45.891,48.863C44.544,48.863 43.561,48.428 43.013,47.725L42.84,47.576L42.784,41.608C42.778,40.983 42.267,40.481 41.643,40.487C41.018,40.493 40.516,41.005 40.522,41.629L40.581,47.992C40.651,49.984 40.357,50.843 39.967,51.264C39.595,51.667 38.863,51.954 37.158,51.954C36.148,51.954 35.341,51.709 34.771,51.29L34.317,50.852L34.293,41.43C34.291,40.806 33.783,40.3 33.158,40.302C32.534,40.304 32.029,40.812 32.031,41.437L32.09,63.752C32.16,65.746 31.866,66.605 31.477,67.027C31.104,67.429 30.372,67.717 28.667,67.717C27.514,67.717 26.623,67.395 26.053,66.866C25.51,66.362 25.118,65.538 25.201,64.205L25.203,64.135L25.203,31.79C25.203,31.165 24.696,30.659 24.072,30.659C23.447,30.659 22.94,31.165 22.94,31.79L22.94,39.185L22.262,39.093C16.241,37.874 16.765,31.561 19.526,27.335C22.945,22.096 27.308,16.445 28.695,9.42L28.958,7.38L49.605,7.288Z"/>
                        </g>
                    </g>
                    <g transform="matrix(1,0,0,1,0,-3)">
                        <path d="M1726.83,1280.46C1720.83,1277.53 1716.7,1271.36 1716.7,1264.24C1716.7,1254.28 1724.79,1246.19 1734.75,1246.19C1744.71,1246.19 1752.8,1254.28 1752.8,1264.24C1752.8,1268.69 1751.19,1272.77 1748.52,1275.91" style="fill:none;stroke:black;stroke-width:3.13px;"/>
                    </g>
                </g>
                <g transform="matrix(1.95297e-16,3.18944,-3.18944,1.95297e-16,5844.07,-4316.29)">
                    <path d="M1752.56,1279.5L1763.5,1294.01L1741.61,1294.01L1752.56,1279.5Z" style="fill:rgb(35,31,32);stroke:black;stroke-width:0.01px;"/>
                </g>
            </g>
        </g>
    </g>
</svg>
