<?xml version="1.0" encoding="UTF-8" standalone="no"?>
<!DOCTYPE svg PUBLIC "-//W3C//DTD SVG 1.1//EN" "http://www.w3.org/Graphics/SVG/1.1/DTD/svg11.dtd">
<svg width="100%" height="100%" viewBox="0 0 91 91" version="1.1" xmlns="http://www.w3.org/2000/svg" xmlns:xlink="http://www.w3.org/1999/xlink" xml:space="preserve" xmlns:serif="http://www.serif.com/" style="fill-rule:evenodd;clip-rule:evenodd;stroke-linejoin:round;stroke-miterlimit:1.41421;">
    <g id="Artboard1" transform="matrix(0.651169,0,0,0.651169,0,0)">
        <rect x="0" y="0" width="139" height="139" style="fill:none;"/>
        <g transform="matrix(-1.5357,0,0,1.5357,177.812,-34.1597)">
            <path d="M104.218,74.413C102.781,83.548 97.872,91.578 90.396,97.021C84.412,101.379 77.354,103.663 70.09,103.663C68.279,103.663 66.458,103.521 64.635,103.234C45.777,100.264 32.848,82.507 35.813,63.65C37.251,54.514 42.159,46.484 49.636,41.041C55.761,36.582 63.009,34.299 70.451,34.409L65.94,30.112L69.611,26.26L78.204,34.449L78.206,34.448L82.051,38.116L78.383,41.968L78.381,41.965L70.193,50.561L66.345,46.89L70.608,42.417C64.795,42.276 59.124,44.027 54.344,47.508C48.595,51.694 44.821,57.867 43.716,64.892C41.436,79.393 51.379,93.048 65.879,95.331C72.9,96.436 79.938,94.74 85.687,90.554C91.436,86.368 95.21,80.194 96.316,73.169C97.823,63.597 94.002,53.949 86.345,47.991L91.257,41.678C101.211,49.424 106.178,61.967 104.218,74.413Z" style="fill:white;fill-rule:nonzero;"/>
        </g>
    </g>
</svg>
